<svg version="1.1" id="Layer_1" xmlns="http://www.w3.org/2000/svg" xmlns:xlink="http://www.w3.org/1999/xlink" x="0px" y="0px"
	 width="100%" viewBox="0 0 858 854" enable-background="new 0 0 858 854" xml:space="preserve">
<path fill="#FFFFFF" opacity="1.000000" stroke="none" 
	d="
M477.000000,855.000000 
	C318.000061,855.000000 159.500092,855.000000 1.000106,855.000000 
	C1.000071,570.333435 1.000071,285.666931 1.000035,1.000297 
	C286.999786,1.000198 572.999573,1.000198 858.999512,1.000099 
	C858.999634,285.666351 858.999634,570.332703 858.999817,854.999512 
	C731.833313,855.000000 604.666687,855.000000 477.000000,855.000000 
M583.081848,562.008972 
	C567.132874,561.989136 556.898010,569.301331 553.152832,584.842102 
	C566.806152,584.842102 580.397827,584.842102 594.775269,585.100159 
	C599.444946,585.332642 604.114624,585.565063 608.919312,585.804199 
	C607.236633,572.066040 596.291931,562.073486 583.081848,562.008972 
M319.421906,592.499573 
	C311.009552,590.052673 302.600647,587.593811 294.182800,585.165955 
	C291.522827,584.398743 288.838898,583.714539 285.860107,582.342773 
	C275.459625,575.956970 267.337219,567.902405 265.974152,554.074951 
	C266.357025,547.731873 266.739899,541.388855 267.618103,534.551819 
	C271.303345,522.562012 279.492615,514.473206 290.869446,508.286316 
	C294.914062,506.469116 298.958710,504.651917 303.824158,502.978394 
	C310.330688,501.985596 316.812134,500.447449 323.350494,500.146729 
	C330.506317,499.817566 337.714752,500.631683 345.436401,501.525299 
	C357.892334,503.964203 370.222717,506.751007 381.182190,514.036499 
	C377.892609,522.166687 374.821045,529.990295 371.478027,537.696167 
	C371.103668,538.559082 369.190338,538.754333 367.393188,538.826233 
	C365.955231,538.101807 364.537842,537.332520 363.076050,536.659912 
	C350.986725,531.097107 338.500641,527.526855 324.149384,529.011353 
	C319.110413,530.337341 313.565735,530.743896 309.137299,533.179810 
	C299.796692,538.317749 297.612579,548.421021 306.522400,555.845520 
	C309.687073,557.243591 312.747131,558.987610 316.034058,559.981628 
	C332.985779,565.108276 349.995697,570.042603 367.374725,575.590515 
	C376.030853,580.679932 383.182434,587.048767 386.060791,597.166992 
	C391.298645,615.579346 384.288483,634.311829 368.138123,644.872009 
	C366.073090,646.222107 363.969757,647.513733 361.224121,649.176025 
	C354.385345,651.527893 347.546570,653.879761 342.253540,655.700073 
	C420.139099,655.700073 499.755341,655.700073 579.371582,655.700073 
	C575.331482,654.967651 571.222046,654.829468 567.282898,653.938354 
	C551.718079,650.417542 538.268738,643.510254 528.945312,629.856628 
	C520.883606,618.050781 518.276245,605.036438 518.954834,590.998291 
	C519.685913,575.875000 525.401245,562.815796 536.179871,552.571533 
	C547.411926,541.896240 561.301514,536.354309 577.874878,536.046997 
	C596.707886,535.898987 613.376160,541.295532 627.024414,555.758972 
	C638.709839,570.202942 642.634705,586.600769 640.054993,605.083740 
	C632.590637,605.083740 625.802429,604.988770 619.018921,605.126770 
	C615.970276,605.188843 612.930969,605.716248 608.969360,606.002319 
	C590.714966,606.002319 572.460510,606.002319 554.074707,606.002319 
	C556.914490,615.696533 560.755127,620.681091 570.600464,624.761780 
	C586.948975,631.537903 601.810120,627.541504 615.239868,616.502930 
	C621.002258,622.694275 626.493042,628.409424 631.686523,634.383057 
	C632.421631,635.228577 632.325745,638.150024 631.566589,638.723389 
	C626.315247,642.689819 621.192383,647.251221 615.243469,649.761841 
	C607.801697,652.902344 599.607605,654.260254 594.329834,655.687073 
	C673.939636,655.687073 756.386108,655.687073 839.000000,655.687073 
	C839.000000,616.585449 839.001892,577.796570 838.993408,539.007629 
	C838.993042,537.345947 838.896362,535.684326 838.958557,533.093323 
	C838.920776,522.387634 838.882996,511.682007 838.989014,500.051849 
	C838.989014,399.725464 838.989014,299.399078 838.989014,199.010574 
	C752.520447,199.010574 666.760132,199.010422 580.999817,199.016693 
	C580.670654,199.016708 580.341492,199.109329 579.106812,199.026154 
	C575.735718,199.073044 572.364685,199.119949 568.099060,199.036575 
	C565.396545,199.079117 562.694031,199.121658 559.066345,199.011658 
	C496.365265,199.007782 433.664154,199.000824 370.963074,199.007278 
	C366.975891,199.007690 362.988708,199.112259 358.077087,199.027527 
	C352.050018,199.072922 346.022949,199.118332 339.070038,199.011627 
	C232.845322,199.011627 126.620598,199.011627 20.000053,199.011627 
	C20.000053,201.011597 20.000053,202.632812 20.000053,204.254044 
	C20.000053,350.169189 19.999559,496.084320 20.006214,641.999451 
	C20.006290,643.661743 20.099178,645.323975 19.993795,647.656067 
	C20.045446,648.108582 20.097095,648.561035 20.010498,649.912231 
	C20.010498,651.845825 20.010498,653.779480 20.010498,655.779175 
	C116.145370,655.779175 211.819733,655.779175 305.457336,655.779175 
	C298.535553,653.809631 289.793091,651.321960 280.601379,648.307068 
	C274.596222,645.292969 268.591095,642.278931 262.449371,639.196228 
	C266.674347,629.844910 270.478119,621.425903 274.330444,612.899353 
	C278.717926,615.145447 282.803192,617.236877 287.364929,619.830688 
	C297.767395,624.424316 308.538635,627.509827 320.908508,627.982056 
	C328.715576,626.841003 336.693726,626.344788 344.269989,624.334167 
	C349.391388,622.974915 352.650879,618.534119 353.002930,612.728027 
	C353.367218,606.720276 350.045593,602.590027 345.044373,600.687744 
	C336.899689,597.589905 328.378723,595.481079 319.421906,592.499573 
z"/>
<path fill="#000000" opacity="1.000000" stroke="none" 
	d="
M20.148739,646.986267 
	C20.099178,645.323975 20.006290,643.661743 20.006214,641.999451 
	C19.999559,496.084320 20.000053,350.169189 20.000053,204.254044 
	C20.000053,202.632812 20.000053,201.011597 20.000053,199.011627 
	C126.620598,199.011627 232.845322,199.011627 339.400238,199.391479 
	C338.116882,202.165497 336.503326,204.559677 334.579010,207.091705 
	C327.162964,217.116806 320.057678,227.004044 312.643005,237.054672 
	C312.055206,237.798477 311.852936,238.432495 311.487335,238.951447 
	C303.966370,249.626495 296.426788,260.288422 288.577759,271.094543 
	C285.932648,274.569244 283.585388,277.891754 281.271790,281.237579 
	C275.825073,289.114410 270.394409,297.002380 264.641968,305.032654 
	C256.847839,315.770844 249.368958,326.362213 241.577835,337.095093 
	C232.565903,349.506226 223.866196,361.775909 215.003036,374.351562 
	C213.752625,376.076263 212.615356,377.459534 211.586441,378.919220 
	C201.010056,393.923889 190.451202,408.940948 179.575714,424.096344 
	C173.727081,432.078247 168.239929,439.954041 162.642242,447.750427 
	C153.042755,461.120575 143.293228,474.383667 133.763977,487.803345 
	C127.755150,496.265350 122.032394,504.930511 115.928238,513.702454 
	C109.212143,522.710571 102.659409,531.456665 96.301842,540.342285 
	C70.884552,575.866699 45.527851,611.434509 20.148739,646.986267 
z"/>
<path fill="#000000" opacity="1.000000" stroke="none" 
	d="
M576.981689,535.854736 
	C561.301514,536.354309 547.411926,541.896240 536.179871,552.571533 
	C525.401245,562.815796 519.685913,575.875000 518.954834,590.998291 
	C518.276245,605.036438 520.883606,618.050781 528.945312,629.856628 
	C538.268738,643.510254 551.718079,650.417542 567.282898,653.938354 
	C571.222046,654.829468 575.331482,654.967651 579.371582,655.700073 
	C499.755341,655.700073 420.139099,655.700073 342.253540,655.700073 
	C347.546570,653.879761 354.385345,651.527893 362.025085,649.081665 
	C375.884308,648.936462 388.942505,648.885681 402.463928,648.904114 
	C407.249176,648.982117 411.583313,649.178650 415.886993,648.901794 
	C417.482391,648.799255 419.576508,648.011230 420.471741,646.811157 
	C427.061584,637.977112 433.405396,628.959595 439.905914,620.462524 
	C439.985138,631.849121 439.985138,642.772949 439.985138,653.781494 
	C452.204407,653.781494 463.928436,653.781494 475.841461,653.781494 
	C475.841461,625.322021 475.841461,597.082947 476.027405,568.564697 
	C484.835846,556.214600 493.458344,544.143677 502.543182,532.036987 
	C509.900726,532.001343 516.795959,532.001343 524.002625,532.001343 
	C524.002625,523.462097 524.052917,515.389160 523.957458,507.317993 
	C523.939758,505.818512 523.335266,504.325989 523.136963,502.525452 
	C526.863464,497.183929 530.454651,492.147308 534.363159,486.964417 
	C546.490234,470.227783 558.299866,453.637329 570.417114,436.889709 
	C576.219299,428.917023 581.753906,421.129150 587.197205,413.277985 
	C592.526978,405.590698 597.763733,397.838959 603.357056,389.971832 
	C604.028320,389.479248 604.449585,389.176270 604.730103,388.774933 
	C617.375488,370.679596 629.983643,352.608276 639.062561,332.289612 
	C646.007446,316.746979 651.385986,300.723480 652.797058,283.859131 
	C654.523987,263.221558 651.748901,243.429047 637.428101,226.681763 
	C628.088745,215.759933 616.632996,208.788803 602.848877,204.550598 
	C595.108887,202.531342 587.560608,200.845016 580.012329,199.158707 
	C580.341492,199.109329 580.670654,199.016708 580.999817,199.016693 
	C666.760132,199.010422 752.520447,199.010574 838.989014,199.010574 
	C838.989014,299.399078 838.989014,399.725464 838.566772,500.303436 
	C834.729248,469.551270 821.484375,443.433289 798.916260,421.575623 
	C787.389038,410.490021 774.642456,401.770355 759.864868,395.554199 
	C758.305725,394.789215 756.886719,394.441589 755.544006,393.903564 
	C742.842346,388.813812 729.603271,386.178680 715.539795,385.091827 
	C701.190491,384.471283 687.476562,385.628021 673.624268,389.218079 
	C657.205139,393.955536 642.163391,400.658539 628.666443,411.185425 
	C623.369934,415.482819 617.931885,419.323181 613.548401,424.126038 
	C602.677490,436.036835 593.233704,448.948303 586.919922,464.026611 
	C580.315369,479.799377 576.382202,496.091888 576.083801,513.161560 
	C575.951782,520.718384 576.656738,528.289917 576.981689,535.854736 
z"/>
<path fill="#000000" opacity="1.000000" stroke="none" 
	d="
M344.900269,500.947571 
	C337.714752,500.631683 330.506317,499.817566 323.350494,500.146729 
	C316.812134,500.447449 310.330688,501.985596 303.550415,502.596741 
	C307.220612,496.492676 311.164520,490.770233 315.420837,484.905792 
	C317.433197,482.395508 319.168457,480.051666 320.826752,477.654602 
	C326.249695,469.815399 331.644623,461.956787 337.365295,453.959534 
	C340.121857,450.374176 342.586060,446.950775 345.000671,443.492706 
	C351.301788,434.468414 357.581207,425.428986 364.129456,416.219421 
	C365.487610,414.635559 366.643250,413.268707 367.674377,411.813660 
	C376.811615,398.920044 385.926788,386.010803 395.358795,372.941986 
	C403.658783,358.449310 412.236145,344.410522 419.480377,329.714569 
	C427.446777,313.553589 431.939911,296.110809 432.857025,278.091492 
	C433.614319,263.211761 430.956604,248.756943 423.227814,235.637054 
	C416.488098,224.196167 407.385803,215.325974 394.928772,209.627106 
	C384.312683,204.557602 373.614868,200.721146 361.669067,200.095505 
	C360.558441,199.739014 359.779999,199.453705 359.001526,199.168381 
	C362.988708,199.112259 366.975891,199.007690 370.963074,199.007278 
	C433.664154,199.000824 496.365265,199.007782 559.394165,199.400833 
	C555.831360,205.342941 551.914978,210.878067 548.056152,216.453064 
	C542.644775,224.271240 537.276306,232.119095 531.576721,240.089340 
	C524.886658,248.993362 518.417847,257.697632 512.160461,266.551300 
	C506.961304,273.907684 502.010712,281.439758 496.634216,289.035156 
	C492.665192,294.165131 488.925262,299.093201 485.376465,304.155273 
	C477.663361,315.157318 470.047882,326.227814 462.136383,337.479980 
	C457.163696,344.053894 452.333374,350.337646 447.759979,356.803223 
	C442.373810,364.417816 437.210327,372.189941 431.633850,380.037567 
	C426.227722,387.270935 421.076263,394.317200 416.064819,401.461670 
	C410.606567,409.243195 405.278198,417.115875 399.581238,425.086365 
	C389.453369,438.992554 379.670074,452.784607 369.811554,466.522614 
	C361.553467,478.030396 353.207397,489.475006 344.900269,500.947571 
z"/>
<path fill="#95FF43" opacity="1.000000" stroke="none" 
	d="
M629.004883,411.166473 
	C642.163391,400.658539 657.205139,393.955536 673.623108,389.675873 
	C673.997864,439.318298 673.994690,488.554352 673.534668,537.857788 
	C669.835510,537.925232 666.593323,537.925232 663.091675,537.925232 
	C663.091675,544.754761 663.104309,550.727234 663.089478,556.699585 
	C663.019714,584.810669 662.942444,612.921814 662.484924,641.018860 
	C641.700134,633.821960 624.480164,621.888550 609.887451,606.032471 
	C612.930969,605.716248 615.970276,605.188843 619.018921,605.126770 
	C625.802429,604.988770 632.590637,605.083740 640.054993,605.083740 
	C642.634705,586.600769 638.709839,570.202942 627.257507,555.249512 
	C627.993713,552.584106 628.931885,550.428955 628.935974,548.272095 
	C629.022217,502.570343 629.003235,456.868378 629.004883,411.166473 
z"/>
<path fill="#7EFF38" opacity="1.000000" stroke="none" 
	d="
M531.889465,239.954254 
	C537.276306,232.119095 542.644775,224.271240 548.056152,216.453064 
	C551.914978,210.878067 555.831360,205.342941 559.856812,199.477097 
	C562.694031,199.121658 565.396545,199.079117 568.548462,199.558960 
	C568.998535,277.027832 568.990662,353.974304 569.046387,430.920776 
	C569.047852,432.963074 569.739746,435.004852 570.109558,437.046875 
	C558.299866,453.637329 546.490234,470.227783 534.195679,486.572632 
	C533.473816,484.203156 533.030762,482.079346 533.029785,479.955322 
	C532.994385,401.997040 533.008423,324.038727 532.953491,246.080475 
	C532.952026,244.038147 532.259644,241.996323 531.889465,239.954254 
z"/>
<path fill="#86FF3C" opacity="1.000000" stroke="none" 
	d="
M570.417114,436.889709 
	C569.739746,435.004852 569.047852,432.963074 569.046387,430.920776 
	C568.990662,353.974304 568.998535,277.027832 568.995728,199.624084 
	C572.364685,199.119949 575.735718,199.073044 579.559570,199.092438 
	C587.560608,200.845016 595.108887,202.531342 602.836670,205.026810 
	C603.024597,267.262482 603.032959,328.689026 603.041321,390.115540 
	C597.763733,397.838959 592.526978,405.590698 587.197205,413.277985 
	C581.753906,421.129150 576.219299,428.917023 570.417114,436.889709 
z"/>
<path fill="#13FF09" opacity="1.000000" stroke="none" 
	d="
M20.071266,647.321167 
	C45.527851,611.434509 70.884552,575.866699 96.301842,540.342285 
	C102.659409,531.456665 109.212143,522.710571 116.334465,513.976074 
	C117.329353,516.118652 117.955048,518.185242 117.957794,520.252625 
	C118.014725,563.112793 118.000893,605.972961 117.537048,648.903320 
	C84.764938,648.986755 52.456841,649.000183 20.148743,649.013550 
	C20.097095,648.561035 20.045446,648.108582 20.071266,647.321167 
z"/>
<path fill="#4EFF23" opacity="1.000000" stroke="none" 
	d="
M363.869263,416.395569 
	C357.581207,425.428986 351.301788,434.468414 345.000671,443.492706 
	C342.586060,446.950775 340.121857,450.374176 337.195953,453.568634 
	C336.474457,451.200256 336.030792,449.076660 336.029816,446.952911 
	C335.994385,368.995331 336.008453,291.037781 335.953522,213.080246 
	C335.952087,211.037872 335.259888,208.995972 334.889771,206.953857 
	C336.503326,204.559677 338.116882,202.165497 339.863159,199.467529 
	C346.022949,199.118332 352.050018,199.072922 358.539307,199.097961 
	C359.779999,199.453705 360.558441,199.739014 361.668579,200.553101 
	C362.000183,270.620605 361.982697,340.159393 362.078552,409.697998 
	C362.081604,411.931366 363.246185,414.163116 363.869263,416.395569 
z"/>
<path fill="#000000" opacity="1.000000" stroke="none" 
	d="
M609.428406,606.017395 
	C624.480164,621.888550 641.700134,633.821960 662.546387,641.480957 
	C662.990784,645.870117 662.990784,649.783081 662.990784,653.736877 
	C674.619446,653.736877 685.765869,653.736877 696.895691,653.736877 
	C696.985657,651.990967 697.062012,650.508240 697.597046,649.011780 
	C709.567017,648.332336 721.095764,647.872314 732.581482,646.902771 
	C737.380981,646.497559 742.088989,645.009583 746.913452,644.468018 
	C746.988342,647.858398 746.988342,650.794678 746.988342,653.765198 
	C758.893494,653.765198 770.286011,653.765198 781.963684,653.765198 
	C781.963684,644.419312 781.963684,635.304993 782.288940,626.040161 
	C788.091309,621.296753 793.568420,616.703857 799.355408,611.976929 
	C803.214600,607.957581 806.939331,604.216797 810.279114,600.159119 
	C819.284790,589.217896 826.710022,577.266541 830.971924,563.693115 
	C834.034180,553.940491 836.250732,543.922363 838.844543,534.022644 
	C838.896362,535.684326 838.993042,537.345947 838.993408,539.007629 
	C839.001892,577.796570 839.000000,616.585449 839.000000,655.687073 
	C756.386108,655.687073 673.939636,655.687073 594.329834,655.687073 
	C599.607605,654.260254 607.801697,652.902344 615.243469,649.761841 
	C621.192383,647.251221 626.315247,642.689819 631.566589,638.723389 
	C632.325745,638.150024 632.421631,635.228577 631.686523,634.383057 
	C626.493042,628.409424 621.002258,622.694275 615.239868,616.502930 
	C601.810120,627.541504 586.948975,631.537903 570.600464,624.761780 
	C560.755127,620.681091 556.914490,615.696533 554.074707,606.002319 
	C572.460510,606.002319 590.714966,606.002319 609.428406,606.017395 
z"/>
<path fill="#37FF19" opacity="1.000000" stroke="none" 
	d="
M241.890076,336.953613 
	C249.368958,326.362213 256.847839,315.770844 264.663361,305.463257 
	C265.333344,308.865265 265.955231,311.983215 265.957611,315.101654 
	C266.012604,386.377411 265.990692,457.653168 266.047089,528.928894 
	C266.048706,530.968140 266.748505,533.006836 267.122772,535.045776 
	C266.739899,541.388855 266.357025,547.731873 265.596100,554.680176 
	C257.852997,565.535461 250.487930,575.785461 243.024139,585.573975 
	C242.925415,569.530640 242.925415,553.948792 242.925415,537.784180 
	C238.230057,537.784180 234.110657,537.784180 229.992737,537.330688 
	C229.996658,531.901794 229.999084,526.926392 230.313568,521.759583 
	C246.622543,517.416870 251.749008,503.196381 242.118530,489.746033 
	C242.521301,487.560822 242.968246,485.770691 242.969696,483.980194 
	C243.007858,436.680084 243.011612,389.379974 242.953247,342.079895 
	C242.951141,340.370697 242.260056,338.662354 241.890076,336.953613 
z"/>
<path fill="#43FF1E" opacity="1.000000" stroke="none" 
	d="
M315.108459,485.047821 
	C311.164520,490.770233 307.220612,496.492676 303.140015,502.524902 
	C298.958710,504.651917 294.914062,506.469116 290.470428,507.901184 
	C290.047607,505.183807 290.003143,502.851593 290.003021,500.519348 
	C289.999359,426.040192 290.008850,351.561066 289.953552,277.081940 
	C289.952057,275.038696 289.260620,272.995941 288.890930,270.952972 
	C296.426788,260.288422 303.966370,249.626495 311.487335,238.951447 
	C311.852936,238.432495 312.055206,237.798477 312.811279,237.446152 
	C313.525970,239.798065 313.969269,241.921814 313.970245,244.045746 
	C314.005615,322.337128 313.991608,400.628540 314.046417,478.919922 
	C314.047852,480.962799 314.738983,483.005188 315.108459,485.047821 
z"/>
<path fill="#54FF26" opacity="1.000000" stroke="none" 
	d="
M345.168335,501.236450 
	C353.207397,489.475006 361.553467,478.030396 369.811554,466.522614 
	C379.670074,452.784607 389.453369,438.992554 399.896301,425.370972 
	C400.681793,427.154572 400.976440,428.790955 400.978333,430.427673 
	C401.006470,454.575806 400.995728,478.723969 400.547241,502.946228 
	C397.653931,503.020355 395.207611,503.020355 392.481476,503.020355 
	C392.481476,512.684631 392.481476,521.858215 392.481476,531.398010 
	C395.816254,531.582214 398.909882,531.753052 402.002075,532.398071 
	C402.000702,571.526489 402.000732,610.180664 402.000732,648.834900 
	C388.942505,648.885681 375.884308,648.936462 362.355133,648.909851 
	C363.969757,647.513733 366.073090,646.222107 368.138123,644.872009 
	C384.288483,634.311829 391.298645,615.579346 386.060791,597.166992 
	C383.182434,587.048767 376.030853,580.679932 367.234985,574.898926 
	C367.396759,572.111938 367.938660,570.018799 367.958618,567.920776 
	C368.049591,558.367676 367.993744,548.813171 367.990692,539.259216 
	C369.190338,538.754333 371.103668,538.559082 371.478027,537.696167 
	C374.821045,529.990295 377.892609,522.166687 381.182190,514.036499 
	C370.222717,506.751007 357.892334,503.964203 345.168335,501.236450 
z"/>
<path fill="#3DFF1C" opacity="1.000000" stroke="none" 
	d="
M288.577759,271.094543 
	C289.260620,272.995941 289.952057,275.038696 289.953552,277.081940 
	C290.008850,351.561066 289.999359,426.040192 290.003021,500.519348 
	C290.003143,502.851593 290.047607,505.183807 290.114319,508.022217 
	C279.492615,514.473206 271.303345,522.562012 267.370422,534.798828 
	C266.748505,533.006836 266.048706,530.968140 266.047089,528.928894 
	C265.990692,457.653168 266.012604,386.377411 265.957611,315.101654 
	C265.955231,311.983215 265.333344,308.865265 264.978638,305.316467 
	C270.394409,297.002380 275.825073,289.114410 281.271790,281.237579 
	C283.585388,277.891754 285.932648,274.569244 288.577759,271.094543 
z"/>
<path fill="#BCFF54" opacity="1.000000" stroke="none" 
	d="
M838.901550,533.557983 
	C836.250732,543.922363 834.034180,553.940491 830.971924,563.693115 
	C826.710022,577.266541 819.284790,589.217896 810.279114,600.159119 
	C806.939331,604.216797 803.214600,607.957581 799.188110,611.585144 
	C798.473877,609.538025 798.030884,607.748779 798.029846,605.959229 
	C797.993774,546.701477 797.989258,487.443695 798.043945,428.185974 
	C798.045837,426.085754 798.695435,423.986145 799.043091,421.886230 
	C821.484375,443.433289 834.729248,469.551270 838.494873,500.765686 
	C838.882996,511.682007 838.920776,522.387634 838.901550,533.557983 
z"/>
<path fill="#8BFF3E" opacity="1.000000" stroke="none" 
	d="
M628.666443,411.185425 
	C629.003235,456.868378 629.022217,502.570343 628.935974,548.272095 
	C628.931885,550.428955 627.993713,552.584106 627.120483,554.934570 
	C613.376160,541.295532 596.707886,535.898987 577.428284,535.950867 
	C576.656738,528.289917 575.951782,520.718384 576.083801,513.161560 
	C576.382202,496.091888 580.315369,479.799377 586.919922,464.026611 
	C593.233704,448.948303 602.677490,436.036835 613.548401,424.126038 
	C617.931885,419.323181 623.369934,415.482819 628.666443,411.185425 
z"/>
<path fill="#4EFF23" opacity="1.000000" stroke="none" 
	d="
M367.691956,539.042725 
	C367.993744,548.813171 368.049591,558.367676 367.958618,567.920776 
	C367.938660,570.018799 367.396759,572.111938 367.040253,574.625671 
	C349.995697,570.042603 332.985779,565.108276 316.034058,559.981628 
	C312.747131,558.987610 309.687073,557.243591 306.666199,555.282959 
	C312.870758,546.199951 318.931549,537.679504 324.992371,529.159058 
	C338.500641,527.526855 350.986725,531.097107 363.076050,536.659912 
	C364.537842,537.332520 365.955231,538.101807 367.691956,539.042725 
z"/>
<path fill="#000000" opacity="1.000000" stroke="none" 
	d="
M243.122864,586.035461 
	C250.487930,575.785461 257.852997,565.535461 265.524841,555.143188 
	C267.337219,567.902405 275.459625,575.956970 285.936432,582.887695 
	C286.012756,583.432556 285.950562,583.894653 285.641510,584.057983 
	C275.810638,597.729858 266.338959,611.274109 256.744629,624.730957 
	C252.340851,630.907654 247.696213,636.912659 243.087418,642.531250 
	C243.050308,623.389771 243.086578,604.712585 243.122864,586.035461 
z"/>
<path fill="#000000" opacity="1.000000" stroke="none" 
	d="
M20.079620,649.462891 
	C52.456841,649.000183 84.764938,648.986755 118.001114,648.972534 
	C127.265755,649.012207 135.602325,649.052673 143.967331,649.536011 
	C143.995773,651.231018 143.995773,652.483093 143.995773,653.777222 
	C155.922104,653.777222 167.404648,653.777222 179.043579,653.777222 
	C179.043579,652.073486 179.043579,650.592590 179.507080,649.063965 
	C183.285568,649.010681 186.627441,648.733521 189.909576,649.059021 
	C195.690430,649.632385 200.331619,648.772888 203.021088,642.673279 
	C204.280685,639.816467 206.852158,637.538025 208.907150,635.461182 
	C208.985245,641.834717 208.985245,647.744629 208.985245,653.740112 
	C220.593842,653.740112 231.753098,653.740112 242.896240,653.740112 
	C242.985992,651.992371 243.062256,650.507141 243.598373,649.010803 
	C256.389038,648.944641 268.719818,648.889526 281.050629,648.834351 
	C289.793091,651.321960 298.535553,653.809631 305.457336,655.779175 
	C211.819733,655.779175 116.145370,655.779175 20.010498,655.779175 
	C20.010498,653.779480 20.010498,651.845825 20.079620,649.462891 
z"/>
<path fill="#43FF1E" opacity="1.000000" stroke="none" 
	d="
M285.950562,583.894653 
	C285.950562,583.894653 286.012756,583.432556 286.089355,583.212463 
	C288.838898,583.714539 291.522827,584.398743 294.182800,585.165955 
	C302.600647,587.593811 311.009552,590.052673 319.714386,593.198853 
	C320.001709,605.201477 319.996521,616.504822 319.991364,627.808105 
	C308.538635,627.509827 297.767395,624.424316 287.159058,619.089111 
	C286.968811,609.272949 287.057037,600.197632 286.951416,591.124512 
	C286.923309,588.710999 286.300385,586.304443 285.950562,583.894653 
z"/>
<path fill="#3DFF1C" opacity="1.000000" stroke="none" 
	d="
M285.641541,584.057983 
	C286.300385,586.304443 286.923309,588.710999 286.951416,591.124512 
	C287.057037,600.197632 286.968811,609.272949 286.920837,618.837891 
	C282.803192,617.236877 278.717926,615.145447 274.330444,612.899353 
	C270.478119,621.425903 266.674347,629.844910 262.449371,639.196228 
	C268.591095,642.278931 274.596222,645.292969 280.825989,648.570679 
	C268.719818,648.889526 256.389038,648.944641 243.498886,648.588989 
	C243.013290,646.450684 243.087051,644.723145 243.160812,642.995544 
	C247.696213,636.912659 252.340851,630.907654 256.744629,624.730957 
	C266.338959,611.274109 275.810638,597.729858 285.641541,584.057983 
z"/>
<path fill="#4EFF23" opacity="1.000000" stroke="none" 
	d="
M320.449951,627.895081 
	C319.996521,616.504822 320.001709,605.201477 320.011719,593.426514 
	C328.378723,595.481079 336.899689,597.589905 345.044373,600.687744 
	C350.045593,602.590027 353.367218,606.720276 353.002930,612.728027 
	C352.650879,618.534119 349.391388,622.974915 344.269989,624.334167 
	C336.693726,626.344788 328.715576,626.841003 320.449951,627.895081 
z"/>
<path fill="#000000" opacity="1.000000" stroke="none" 
	d="
M593.989502,584.842102 
	C580.397827,584.842102 566.806152,584.842102 553.152832,584.842102 
	C556.898010,569.301331 567.132874,561.989136 583.550537,562.441528 
	C587.342712,570.196716 590.666077,577.519409 593.989502,584.842102 
z"/>
<path fill="#8BFF3E" opacity="1.000000" stroke="none" 
	d="
M594.382324,584.971130 
	C590.666077,577.519409 587.342712,570.196716 583.991943,562.499146 
	C596.291931,562.073486 607.236633,572.066040 608.919312,585.804199 
	C604.114624,585.565063 599.444946,585.332642 594.382324,584.971130 
z"/>
<path fill="#000000" opacity="1.000000" stroke="none" 
	d="
M324.570862,529.085205 
	C318.931549,537.679504 312.870758,546.199951 306.484863,554.949585 
	C297.612579,548.421021 299.796692,538.317749 309.137299,533.179810 
	C313.565735,530.743896 319.110413,530.337341 324.570862,529.085205 
z"/>
<path fill="#2BFF14" opacity="1.000000" stroke="none" 
	d="
M208.829056,634.997498 
	C206.852158,637.538025 204.280685,639.816467 203.021088,642.673279 
	C200.331619,648.772888 195.690430,649.632385 189.909576,649.059021 
	C186.627441,648.733521 183.285568,649.010681 179.183121,648.777466 
	C178.315216,646.717773 178.165161,644.897095 178.164597,643.076355 
	C178.151459,599.856628 178.146103,556.636902 178.163757,513.417175 
	C178.166260,507.272522 178.294693,501.127899 178.757965,494.958679 
	C179.766785,493.288269 180.908279,491.645660 180.918228,489.996246 
	C181.040878,469.690308 181.024750,449.383331 180.950027,429.076935 
	C180.943726,427.368195 180.257690,425.661926 179.887451,423.954529 
	C190.451202,408.940948 201.010056,393.923889 211.586441,378.919220 
	C212.615356,377.459534 213.752625,376.076263 215.264984,374.667114 
	C215.793579,376.493530 215.985657,378.310242 215.986755,380.127106 
	C216.005234,410.919220 215.960297,441.711487 216.044235,472.503357 
	C216.056351,476.951813 216.662354,481.398651 216.706787,486.042480 
	C209.283936,489.793915 205.020325,495.390381 205.207413,503.515015 
	C205.398926,511.830109 209.769836,517.738953 217.572800,520.358521 
	C221.456207,521.662231 225.842636,521.467773 230.001511,521.950989 
	C229.999084,526.926392 229.996658,531.901794 229.529663,537.402954 
	C222.495239,537.928711 215.925415,537.928711 209.151825,537.928711 
	C209.151825,555.028809 209.193817,571.316162 209.139862,587.603271 
	C209.087524,603.401489 208.936646,619.199463 208.829056,634.997498 
z"/>
<path fill="#1CFF0E" opacity="1.000000" stroke="none" 
	d="
M179.575714,424.096344 
	C180.257690,425.661926 180.943726,427.368195 180.950027,429.076935 
	C181.024750,449.383331 181.040878,469.690308 180.918228,489.996246 
	C180.908279,491.645660 179.766785,493.288269 178.459488,494.621460 
	C166.860321,494.308868 155.952789,494.308868 144.774094,494.308868 
	C144.774094,496.689606 144.774094,498.671051 144.774094,500.652466 
	C144.774094,548.226868 144.783752,595.801331 144.738785,643.375671 
	C144.736984,645.281799 144.217285,647.187378 143.938873,649.093140 
	C135.602325,649.052673 127.265755,649.012207 118.465126,648.902466 
	C118.000893,605.972961 118.014725,563.112793 117.957794,520.252625 
	C117.955048,518.185242 117.329353,516.118652 116.587524,513.778076 
	C122.032394,504.930511 127.755150,496.265350 133.763977,487.803345 
	C143.293228,474.383667 153.042755,461.120575 162.642242,447.750427 
	C168.239929,439.954041 173.727081,432.078247 179.575714,424.096344 
z"/>
<path fill="#48FF20" opacity="1.000000" stroke="none" 
	d="
M315.420837,484.905792 
	C314.738983,483.005188 314.047852,480.962799 314.046417,478.919922 
	C313.991608,400.628540 314.005615,322.337128 313.970245,244.045746 
	C313.969269,241.921814 313.525970,239.798065 313.120697,237.282761 
	C320.057678,227.004044 327.162964,217.116806 334.579041,207.091705 
	C335.259888,208.995972 335.952087,211.037872 335.953522,213.080246 
	C336.008453,291.037781 335.994385,368.995331 336.029816,446.952911 
	C336.030792,449.076660 336.474457,451.200256 336.880981,453.714783 
	C331.644623,461.956787 326.249695,469.815399 320.826752,477.654602 
	C319.168457,480.051666 317.433197,482.395508 315.420837,484.905792 
z"/>
<path fill="#31FF16" opacity="1.000000" stroke="none" 
	d="
M216.993530,485.846222 
	C216.662354,481.398651 216.056351,476.951813 216.044235,472.503357 
	C215.960297,441.711487 216.005234,410.919220 215.986755,380.127106 
	C215.985657,378.310242 215.793579,376.493530 215.428421,374.361145 
	C223.866196,361.775909 232.565903,349.506226 241.577850,337.095093 
	C242.260056,338.662354 242.951141,340.370697 242.953247,342.079895 
	C243.011612,389.379974 243.007858,436.680084 242.969696,483.980194 
	C242.968246,485.770691 242.521301,487.560822 241.791672,489.619110 
	C234.002197,483.707184 225.691025,483.614685 216.993530,485.846222 
z"/>
<path fill="#75FF35" opacity="1.000000" stroke="none" 
	d="
M531.576721,240.089355 
	C532.259644,241.996323 532.952026,244.038147 532.953491,246.080475 
	C533.008423,324.038727 532.994385,401.997040 533.029785,479.955322 
	C533.030762,482.079346 533.473816,484.203156 533.878296,486.718872 
	C530.454651,492.147308 526.863464,497.183929 522.675720,502.604919 
	C514.051147,502.951141 506.023132,502.912964 497.996704,502.414642 
	C497.998840,433.199829 498.009460,364.445190 497.955872,295.690582 
	C497.954102,293.424805 497.300018,291.159515 496.950012,288.894043 
	C502.010712,281.439758 506.961304,273.907684 512.160461,266.551300 
	C518.417847,257.697632 524.886658,248.993362 531.576721,240.089355 
z"/>
<path fill="#FDFFFD" opacity="1.000000" stroke="none" 
	d="
M497.995148,502.874817 
	C506.023132,502.912964 514.051147,502.951141 522.540344,502.909790 
	C523.335266,504.325989 523.939758,505.818512 523.957458,507.317993 
	C524.052917,515.389160 524.002625,523.462097 524.002625,532.001343 
	C516.795959,532.001343 509.900726,532.001343 502.090088,531.883423 
	C492.639038,531.765503 484.103455,531.765503 475.138641,531.765503 
	C475.138641,539.153320 475.049225,545.910645 475.166931,552.664307 
	C475.260956,558.059753 475.607178,563.450867 475.841461,568.843872 
	C475.841461,597.082947 475.841461,625.322021 475.841461,653.781494 
	C463.928436,653.781494 452.204407,653.781494 439.985138,653.781494 
	C439.985138,642.772949 439.985138,631.849121 439.983124,620.000183 
	C440.088257,617.915527 440.288177,616.755920 440.288940,615.596252 
	C440.306213,588.614319 440.307922,561.632446 440.276062,534.650513 
	C440.274963,533.728149 439.896454,532.806213 439.702637,531.923889 
	C426.950684,531.923889 414.477112,531.923889 402.003510,531.923889 
	C398.909882,531.753052 395.816254,531.582214 392.481476,531.398010 
	C392.481476,521.858215 392.481476,512.684631 392.481476,503.020355 
	C395.207611,503.020355 397.653931,503.020355 401.010193,503.027527 
	C412.278839,502.981506 422.637543,502.928314 433.459229,502.954590 
	C443.946747,502.980804 453.971283,502.927521 464.458954,502.953064 
	C475.946411,502.979584 486.970795,502.927185 497.995148,502.874817 
z"/>
<path fill="#B4FF51" opacity="1.000000" stroke="none" 
	d="
M798.916260,421.575623 
	C798.695435,423.986145 798.045837,426.085754 798.043945,428.185974 
	C797.989258,487.443695 797.993774,546.701477 798.029846,605.959229 
	C798.030884,607.748779 798.473877,609.538025 798.878174,611.719238 
	C793.568420,616.703857 788.091309,621.296753 782.001221,625.718201 
	C781.300964,612.722839 781.025574,599.896851 781.170532,587.075562 
	C781.391052,567.570190 775.298645,551.451660 757.974976,540.931763 
	C758.550171,538.716980 758.969788,536.772400 758.971436,534.827454 
	C759.008606,490.776367 758.984619,446.725250 759.044312,402.674255 
	C759.047363,400.410156 759.693604,398.146881 760.040405,395.883240 
	C774.642456,401.770355 787.389038,410.490021 798.916260,421.575623 
z"/>
<path fill="#A0FF48" opacity="1.000000" stroke="none" 
	d="
M673.991577,537.790405 
	C673.994690,488.554352 673.997864,439.318298 674.002197,389.624451 
	C687.476562,385.628021 701.190491,384.471283 715.538635,385.549622 
	C716.040100,436.843262 716.079346,487.604218 715.828918,538.571045 
	C708.686829,542.345642 701.834351,545.914490 694.782593,549.587097 
	C694.782593,546.081787 694.782593,542.175598 694.782593,537.790405 
	C687.558105,537.790405 680.774841,537.790405 673.991577,537.790405 
z"/>
<path fill="#8FFF40" opacity="1.000000" stroke="none" 
	d="
M603.357056,389.971832 
	C603.032959,328.689026 603.024597,267.262482 603.028381,205.359772 
	C616.632996,208.788803 628.088745,215.759933 637.428101,226.681763 
	C651.748901,243.429047 654.523987,263.221558 652.797058,283.859131 
	C651.385986,300.723480 646.007446,316.746979 639.062561,332.289612 
	C629.983643,352.608276 617.375488,370.679596 604.730103,388.774933 
	C604.449585,389.176270 604.028320,389.479248 603.357056,389.971832 
z"/>
<path fill="#A9FF4C" opacity="1.000000" stroke="none" 
	d="
M716.118530,538.365173 
	C716.079346,487.604218 716.040100,436.843262 716.002075,385.624512 
	C729.603271,386.178680 742.842346,388.813812 755.544006,393.903564 
	C756.886719,394.441589 758.305725,394.789215 759.864868,395.554199 
	C759.693604,398.146881 759.047363,400.410156 759.044312,402.674255 
	C758.984619,446.725250 759.008606,490.776367 758.971436,534.827454 
	C758.969788,536.772400 758.550171,538.716980 757.624512,540.870911 
	C743.661011,535.080322 729.998657,535.086670 716.118530,538.365173 
z"/>
<path fill="#5EFF2A" opacity="1.000000" stroke="none" 
	d="
M402.002075,532.398071 
	C414.477112,531.923889 426.950684,531.923889 439.702637,531.923889 
	C439.896454,532.806213 440.274963,533.728149 440.276062,534.650513 
	C440.307922,561.632446 440.306213,588.614319 440.288940,615.596252 
	C440.288177,616.755920 440.088257,617.915527 439.903900,619.537476 
	C433.405396,628.959595 427.061584,637.977112 420.471741,646.811157 
	C419.576508,648.011230 417.482391,648.799255 415.886993,648.901794 
	C411.583313,649.178650 407.249176,648.982117 402.463928,648.904114 
	C402.000732,610.180664 402.000702,571.526489 402.002075,532.398071 
z"/>
<path fill="#75FF35" opacity="1.000000" stroke="none" 
	d="
M476.027405,568.564697 
	C475.607178,563.450867 475.260956,558.059753 475.166931,552.664307 
	C475.049225,545.910645 475.138641,539.153320 475.138641,531.765503 
	C484.103455,531.765503 492.639038,531.765503 501.627747,531.919067 
	C493.458344,544.143677 484.835846,556.214600 476.027405,568.564697 
z"/>
<path fill="#6DFF31" opacity="1.000000" stroke="none" 
	d="
M497.996704,502.414642 
	C486.970795,502.927185 475.946411,502.979584 464.460297,502.493011 
	C463.999023,450.643280 464.031647,399.332397 463.930847,348.021790 
	C463.923798,344.436951 462.928284,340.854095 462.392456,337.270294 
	C470.047882,326.227814 477.663361,315.157318 485.376465,304.155273 
	C488.925262,299.093201 492.665192,294.165131 496.634216,289.035156 
	C497.300018,291.159515 497.954102,293.424805 497.955872,295.690582 
	C498.009460,364.445190 497.998840,433.199829 497.996704,502.414642 
z"/>
<path fill="#54FF26" opacity="1.000000" stroke="none" 
	d="
M364.129456,416.219452 
	C363.246185,414.163116 362.081604,411.931366 362.078552,409.697998 
	C361.982697,340.159393 362.000183,270.620605 362.000732,200.624268 
	C373.614868,200.721146 384.312683,204.557602 394.614807,209.912842 
	C394.316040,211.655899 394.020660,212.792984 394.020172,213.930206 
	C393.997314,265.221893 393.989838,316.513580 394.044373,367.805237 
	C394.046265,369.572601 394.699097,371.339203 395.048492,373.106171 
	C385.926788,386.010803 376.811615,398.920044 367.674377,411.813660 
	C366.643250,413.268707 365.487610,414.635559 364.129456,416.219452 
z"/>
<path fill="#65FF2D" opacity="1.000000" stroke="none" 
	d="
M462.136353,337.479980 
	C462.928284,340.854095 463.923798,344.436951 463.930847,348.021790 
	C464.031647,399.332397 463.999023,450.643280 463.997192,502.414124 
	C453.971283,502.927521 443.946747,502.980804 433.460449,502.494415 
	C432.999146,463.531311 433.017334,425.107849 432.955139,386.684540 
	C432.951477,384.420410 432.300171,382.157318 431.950256,379.893738 
	C437.210327,372.189941 442.373810,364.417816 447.759979,356.803223 
	C452.333374,350.337646 457.163696,344.053894 462.136353,337.479980 
z"/>
<path fill="#5EFF2A" opacity="1.000000" stroke="none" 
	d="
M395.358795,372.941986 
	C394.699097,371.339203 394.046265,369.572601 394.044373,367.805237 
	C393.989838,316.513580 393.997314,265.221893 394.020172,213.930206 
	C394.020660,212.792984 394.316040,211.655899 394.787842,210.233017 
	C407.385803,215.325974 416.488098,224.196167 423.227814,235.637054 
	C430.956604,248.756943 433.614319,263.211761 432.857025,278.091492 
	C431.939911,296.110809 427.446777,313.553589 419.480377,329.714569 
	C412.236145,344.410522 403.658783,358.449310 395.358795,372.941986 
z"/>
<path fill="#5EFF2A" opacity="1.000000" stroke="none" 
	d="
M431.633850,380.037567 
	C432.300171,382.157318 432.951477,384.420410 432.955139,386.684540 
	C433.017334,425.107849 432.999146,463.531311 432.997498,502.414917 
	C422.637543,502.928314 412.278839,502.981506 401.457153,502.953430 
	C400.995728,478.723969 401.006470,454.575806 400.978333,430.427673 
	C400.976440,428.790955 400.681793,427.154572 400.208252,425.233429 
	C405.278198,417.115875 410.606567,409.243195 416.064819,401.461670 
	C421.076263,394.317200 426.227722,387.270935 431.633850,380.037567 
z"/>
<path fill="#FFFFFF" opacity="1.000000" stroke="none" 
	d="
M715.828918,538.571045 
	C729.998657,535.086670 743.661011,535.080322 757.274292,541.140869 
	C775.298645,551.451660 781.391052,567.570190 781.170532,587.075562 
	C781.025574,599.896851 781.300964,612.722839 781.675903,625.868713 
	C781.963684,635.304993 781.963684,644.419312 781.963684,653.765198 
	C770.286011,653.765198 758.893494,653.765198 746.988342,653.765198 
	C746.988342,650.794678 746.988342,647.858398 747.078247,644.081848 
	C747.398010,634.623779 747.843750,626.005066 747.803650,617.388489 
	C747.752502,606.408447 747.708130,595.400757 746.902161,584.460876 
	C746.302307,576.318115 742.174683,569.849121 734.084167,566.938232 
	C720.140808,561.921570 698.656067,566.791931 697.279175,590.073608 
	C696.120911,609.658508 697.103577,629.369995 697.138428,649.025452 
	C697.062012,650.508240 696.985657,651.990967 696.895691,653.736877 
	C685.765869,653.736877 674.619446,653.736877 662.990784,653.736877 
	C662.990784,649.783081 662.990784,645.870117 662.929321,641.494995 
	C662.942444,612.921814 663.019714,584.810669 663.089478,556.699585 
	C663.104309,550.727234 663.091675,544.754761 663.091675,537.925232 
	C666.593323,537.925232 669.835510,537.925232 673.534668,537.857788 
	C680.774841,537.790405 687.558105,537.790405 694.782593,537.790405 
	C694.782593,542.175598 694.782593,546.081787 694.782593,549.587097 
	C701.834351,545.914490 708.686829,542.345642 715.828918,538.571045 
z"/>
<path fill="#A7FF4C" opacity="1.000000" stroke="none" 
	d="
M697.597046,649.011780 
	C697.103577,629.369995 696.120911,609.658508 697.279175,590.073608 
	C698.656067,566.791931 720.140808,561.921570 734.084167,566.938232 
	C742.174683,569.849121 746.302307,576.318115 746.902161,584.460876 
	C747.708130,595.400757 747.752502,606.408447 747.803650,617.388489 
	C747.843750,626.005066 747.398010,634.623779 747.003357,643.627747 
	C742.088989,645.009583 737.380981,646.497559 732.581482,646.902771 
	C721.095764,647.872314 709.567017,648.332336 697.597046,649.011780 
z"/>
<path fill="#FDFFFD" opacity="1.000000" stroke="none" 
	d="
M208.907150,635.461182 
	C208.936646,619.199463 209.087524,603.401489 209.139862,587.603271 
	C209.193817,571.316162 209.151825,555.028809 209.151825,537.928711 
	C215.925415,537.928711 222.495239,537.928711 229.528168,537.856445 
	C234.110657,537.784180 238.230057,537.784180 242.925415,537.784180 
	C242.925415,553.948792 242.925415,569.530640 243.024139,585.573975 
	C243.086578,604.712585 243.050308,623.389771 243.087418,642.531250 
	C243.087051,644.723145 243.013290,646.450684 243.039032,648.600098 
	C243.062256,650.507141 242.985992,651.992371 242.896240,653.740112 
	C231.753098,653.740112 220.593842,653.740112 208.985245,653.740112 
	C208.985245,647.744629 208.985245,641.834717 208.907150,635.461182 
z"/>
<path fill="#FDFFFD" opacity="1.000000" stroke="none" 
	d="
M216.706787,486.042480 
	C225.691025,483.614685 234.002197,483.707184 241.628265,490.014008 
	C251.749008,503.196381 246.622543,517.416870 230.313568,521.759583 
	C225.842636,521.467773 221.456207,521.662231 217.572800,520.358521 
	C209.769836,517.738953 205.398926,511.830109 205.207413,503.515015 
	C205.020325,495.390381 209.283936,489.793915 216.706787,486.042480 
z"/>
<path fill="#FFFFFF" opacity="1.000000" stroke="none" 
	d="
M143.967316,649.536011 
	C144.217285,647.187378 144.736984,645.281799 144.738785,643.375671 
	C144.783752,595.801331 144.774094,548.226868 144.774094,500.652466 
	C144.774094,498.671051 144.774094,496.689606 144.774094,494.308868 
	C155.952789,494.308868 166.860321,494.308868 178.066345,494.646057 
	C178.294693,501.127899 178.166260,507.272522 178.163757,513.417175 
	C178.146103,556.636902 178.151459,599.856628 178.164597,643.076355 
	C178.165161,644.897095 178.315216,646.717773 178.719604,648.825073 
	C179.043579,650.592590 179.043579,652.073486 179.043579,653.777222 
	C167.404648,653.777222 155.922104,653.777222 143.995773,653.777222 
	C143.995773,652.483093 143.995773,651.231018 143.967316,649.536011 
z"/>
</svg>